# xmcd
#
# Track frame offsets: 
#        150
#        13759
#        36754
#        51846
#        63794
#        74382
#        92894
#        111785
#        126259
#        148522
#        165163
#        187486
#        217679
#
# Disc length: 3221 seconds
#
# Revision: 0
# Processed by: cddbd v1.5.2PL0 Copyright (c) Steve Scherf et al.
# Submitted via: ExactAudioCopyFreeDBPlugin 1.0
#
DISCID=b60c930d
DTITLE=Jocelyn B. Smith - Here I Am
DYEAR=2013
DGENRE=Soul
TTITLE0=I Saw You There
TTITLE1=Honest Song
TTITLE2=Home
TTITLE3=What Are We Doing Here (Remix)
TTITLE4=WDOYL
TTITLE5=Meadows
TTITLE6=Your Love
TTITLE7=Please Don't Forget
TTITLE8=Makes Me Better
TTITLE9=Choose To Change
TTITLE10=Moonlight Chanson
TTITLE11=Prelude C# Minor
TTITLE12=What Are We Doing Here (Live and Orchestra)
EXTD=
EXTT0=
EXTT1=
EXTT2=
EXTT3=
EXTT4=
EXTT5=
EXTT6=
EXTT7=
EXTT8=
EXTT9=
EXTT10=
EXTT11=
EXTT12=
PLAYORDER=
